<svg width="24" height="24" viewBox="0 0 24 24" fill="none" xmlns="http://www.w3.org/2000/svg">
<path d="M19.6799 1.92004H4.31992C2.99512 1.92004 1.91992 2.99524 1.91992 4.32004V19.68C1.91992 21.0048 2.99512 22.08 4.31992 22.08H19.6799C21.0047 22.08 22.0799 21.0048 22.0799 19.68V4.32004C22.0799 2.99524 21.0047 1.92004 19.6799 1.92004ZM17.7599 9.12004H16.7999C15.7727 9.12004 15.3599 9.36004 15.3599 10.08V11.52H17.7599L17.2799 13.92H15.3599V21.12H12.9599V13.92H11.0399V11.52H12.9599V10.08C12.9599 8.16004 13.9199 6.72004 15.8399 6.72004C17.2319 6.72004 17.7599 7.20004 17.7599 7.20004V9.12004Z" fill="#6972B5"/>
</svg>
